<svg data-v-0dd9719b="" version="1.0" xmlns="http://www.w3.org/2000/svg" xmlns:xlink="http://www.w3.org/1999/xlink" width="100%" height="100%" viewBox="0 0 340.000000 250.000000" preserveAspectRatio="xMidYMid meet" color-interpolation-filters="sRGB" style="margin: auto;"> <rect data-v-0dd9719b="" x="0" y="0" width="100%" height="100%" fill="#ffffff" fill-opacity="1" class="background"></rect> <rect data-v-0dd9719b="" x="0" y="0" width="100%" height="100%" fill="url(#watermark)" fill-opacity="1" class="watermarklayer"></rect> <g data-v-0dd9719b="" fill="#ff0844" class="icon-text-wrapper icon-svg-group iconsvg" transform="translate(49.215003967285156,95)"><g class="iconsvg-imagesvg" transform="translate(0,0)"><g><rect fill="#ff0844" fill-opacity="0" stroke-width="2" x="0" y="0" width="60" height="60" class="image-rect"></rect> <svg filter="url(#colors3748377818)" x="0" y="0" width="60" height="60" filtersec="colorsf7983479369" class="image-svg-svg primary" style="overflow: visible;"><svg xmlns="http://www.w3.org/2000/svg" viewBox="-1.025 -1.025 60.65 60.65"><path d="M49.3 49.3c-11.1 11.1-29 11.1-40 0-11.1-11.1-11.1-29 0-40 11.1-11.1 29-11.1 40 0 11.1 11 11.1 28.9 0 40zM4.7 34.4l9.7 9.7c8.2 8.2 21.5 8.2 29.7 0M9.9 29.3l9.7 9.7c5.4 5.4 14.1 5.4 19.4 0l17.5-17.5M44.1 44.1l13.4-13.4m-3.7-6.6l-9.7-9.7c-8.2-8.2-21.5-8.2-29.7 0m34.3 14.9L39 19.6c-5.4-5.4-14.1-5.4-19.4 0L2.1 37.1m12.3-22.7L1 27.8M33.8 34l4.8-4.8-4.3-4.3c-1.4-1.4-3.2-2.1-5-2.1s-3.6.7-5 2.1L20 29.2l4.8 4.8c1.2 1.2 2.9 1.9 4.5 1.9s3.2-.6 4.5-1.9z" fill="none" stroke="#282828" stroke-width="2" stroke-miterlimit="10"></path></svg></svg> <defs><filter id="colors3748377818"><feColorMatrix type="matrix" values="0 0 0 0 0.0390625  0 0 0 0 0.0234375  0 0 0 0 0.09765625  0 0 0 1 0" class="icon-fecolormatrix"></feColorMatrix></filter> <filter id="colorsf7983479369"><feColorMatrix type="matrix" values="0 0 0 0 0.99609375  0 0 0 0 0.99609375  0 0 0 0 0.99609375  0 0 0 1 0" class="icon-fecolormatrix"></feColorMatrix></filter> <filter id="colorsb189437378"><feColorMatrix type="matrix" values="0 0 0 0 0  0 0 0 0 0  0 0 0 0 0  0 0 0 1 0" class="icon-fecolormatrix"></feColorMatrix></filter></defs></g></g> <g transform="translate(67,11.19999885559082)"><g data-gra="path-name" fill-rule="" class="tp-name iconsvg-namesvg"><g transform="scale(1)"><g><path d="M20.68 0.52C31.07 0.52 36.71-5.59 37.91-13.16L30.76-13.16C29.56-8.62 25.85-5.64 20.47-5.64 13.32-5.64 8.77-11.96 8.77-18.8 8.77-26.01 13.84-30.86 20.37-30.86 26.58-30.86 29.82-27.36 30.86-23.03L37.91-23.03C36.87-32.01 29.82-37.08 19.9-37.08 8.77-37.08 1.88-28.67 1.88-18.28 1.88-7.94 8.2 0.52 20.68 0.52ZM39.84-36.55L39.84-30.55 50.86-30.55 50.86 0 57.91 0 57.91-30.55 68.88-30.55 68.88-36.55ZM72.69 0L99.74 0 99.74-6.89 79.79-6.89 79.79-15.46 98.07-15.46 98.07-21.93 79.79-21.93 79.79-29.71 99.74-29.71 99.74-36.55 72.69-36.55ZM121.25 0.52C131.64 0.52 137.28-5.59 138.49-13.16L131.33-13.16C130.13-8.62 126.42-5.64 121.04-5.64 113.89-5.64 109.35-11.96 109.35-18.8 109.35-26.01 114.41-30.86 120.94-30.86 127.15-30.86 130.39-27.36 131.44-23.03L138.49-23.03C137.44-32.01 130.39-37.08 120.47-37.08 109.35-37.08 102.45-28.67 102.45-18.28 102.45-7.94 108.77 0.52 121.25 0.52ZM143.6 0L150.65 0 150.65-15.77 169.4-15.77 169.4 0 176.45 0 176.45-36.55 169.4-36.55 169.4-22.45 150.65-22.45 150.65-36.55 143.6-36.55Z" transform="translate(-1.8799999952316284, 37.08000183105469)"></path></g> <!----> <!----> <!----> <!----> <!----> <!----> <!----></g></g> <!----></g></g><defs v-gra="od"></defs></svg>